{"title":"Long Weekend (1978)","uid":5012890,"size":732694962,"categoryP":"video","categoryS":"movies","magnet":"?xt=urn:btih:cfa51f748dc06c0b01d0d0a7d6e664578b1fca5a&amp;dn=Long+Weekend+%281978%29&amp;tr=udp%3A%2F%2Ftracker.openbittorrent.com%3A80&amp;tr=udp%3A%2F%2Fopen.demonii.com%3A1337&amp;tr=udp%3A%2F%2Ftracker.coppersurfer.tk%3A6969&amp;tr=udp%3A%2F%2Fexodus.desync.com%3A6969","seeders":2,"leechers":1,"uploader":"Klimt_Westwood","files":-1,"time":1248087453,"description":"The remake from 2008 is quite popular these days so I thought that some people would like to see the original movie and compare.\n\nThis is not my rip and the quality is not too good (around  V=7/10, A=7/10 + uncropped black bars) but it is watchable.\n\nIMDB Rating: 6.7/10   (606 votes)\nDirector: Colin Eggleston\nWriter: Everett De Roche\nGenre: Horror | Mystery | Thriller\nTagline: Their crime was against nature... Nature found them guilty.\n\nPlot:\nWhen a suburban couple go camping for the weekend at a remote beach, they discover that nature isn't in an accommodating mood.\n\nRuntime: 92 min\nCountry: Australia\nLanguage: English\nColor: Color (Eastmancolor)\nAspect Ratio: 2.35 : 1\nSound Mix: Mono\n\nFormat                           : AVI\nFormat/Info                      : Audio Video Interleave\nFile size                        : 699 MiB\nDuration                         : 1h 32mn\nOverall bit rate                 : 1 055 Kbps\n\nVideo\nID                               : 0\nFormat                           : MPEG-4 Visual\nFormat profile                   : Simple@L3\nFormat settings, BVOP            : No\nFormat settings, QPel            : No\nFormat settings, GMC             : No warppoints\nFormat settings, Matrix          : Default (H.263)\nCodec ID                         : XVID\nCodec ID/Hint                    : XviD\nDuration                         : 1h 32mn\nBit rate                         : 820 Kbps\nWidth                            : 1 024 pixels\nHeight                           : 576 pixels\nDisplay aspect ratio             : 16/9\nFrame rate                       : 25.000 fps\nResolution                       : 24 bits\nColorimetry                      : 4:2:0\nScan type                        : Progressive\nBits/(Pixel*Frame)               : 0.056\nStream size                      : 543 MiB (78%)\nWriting library                  : XviD 1.1.2 (UTC 2006-11-01)\n\nAudio\nID                               : 1\nFormat                           : AC-3\nFormat/Info                      : Audio Coding 3\nCodec ID                         : 2000\nDuration                         : 1h 32mn\nBit rate mode                    : Constant\nBit rate                         : 224 Kbps\nChannel(s)                       : 2 channels\nChannel positions                : L R\nSampling rate                    : 48.0 KHz\nStream size                      : 148 MiB (21%)\nAlignment                        : Aligned on interleaves\nInterleave, duration             : 32 ms (0.80 video frame)\nInterleave, preload duration     : 32 ms","torrent":{"xt":"urn:btih:cfa51f748dc06c0b01d0d0a7d6e664578b1fca5a","amp;dn":"Long+Weekend+%281978%29","amp;tr":["udp%3A%2F%2Ftracker.openbittorrent.com%3A80","udp%3A%2F%2Fopen.demonii.com%3A1337","udp%3A%2F%2Ftracker.coppersurfer.tk%3A6969","udp%3A%2F%2Fexodus.desync.com%3A6969"],"infoHash":"cfa51f748dc06c0b01d0d0a7d6e664578b1fca5a","infoHashBuffer":{"type":"Buffer","data":[207,165,31,116,141,192,108,11,1,208,208,167,214,230,100,87,139,31,202,90]},"announce":[],"urlList":[]}}